<svg version="1.1" xmlns="http://www.w3.org/2000/svg" viewBox="0 0 85.45524537390318 73.84846548581288">
  <!-- svg-source:excalidraw -->
  
  <defs>
    <style>
      @font-face {
        font-family: "Virgil";
        src: url("https://excalidraw.com/FG_Virgil.woff2");
      }
      @font-face {
        font-family: "Cascadia";
        src: url("https://excalidraw.com/Cascadia.woff2");
      }
    </style>
  </defs>
<g><g transform="translate(234.24886888101022 12.62006884976222) rotate(0 -191.52124619405862 24.30416389314422)" fill-rule="evenodd"><path d="M-219.84865261923034 6.315417960309318 C-219.84865261923034 6.315417960309318, -219.84865261923034 6.315417960309318, -219.84865261923034 6.315417960309318 M-219.84865261923034 6.315417960309318 C-219.84865261923034 6.315417960309318, -219.84865261923034 6.315417960309318, -219.84865261923034 6.315417960309318 M-222.55872682230506 13.643993570799026 C-218.78704393334073 10.505543380534768, -215.11614278412097 8.796761764956223, -211.37172834640415 3.545954067701402 M-222.01935714860406 15.557512791924196 C-219.08049192718028 11.577521984621924, -215.45641879266975 7.500002199190277, -212.7751028011092 4.257651000492203 M-225.56817389265115 24.56479514429762 C-216.50357978830087 16.26358915807603, -209.02042411531025 4.263730087827135, -206.47850442033845 1.977051701324939 M-223.2712430514809 23.713429273501475 C-216.3225127670565 13.992242690711567, -207.70417547156293 4.936978893149433, -203.74139008865345 1.2229564682794205 M-223.12808648695193 26.443897975571687 C-213.70918216763266 16.407755987595444, -204.36003785369118 4.973051664957165, -198.92380394482217 3.0630597862477202 M-222.24426056736104 27.60486254744255 C-212.97208960589612 16.792954675201827, -205.24846157655557 7.02591788452111, -200.012553361926 2.0399467674146194 M-220.90092283961815 30.139966807998718 C-216.14937257578416 22.420780245866183, -209.49765393869208 16.80887269279455, -196.21335128729908 3.4626455231480264 M-220.42269547106218 30.653274372890593 C-212.36661962297575 21.843434505481163, -206.377337546861 14.254208486030572, -194.68970246741293 1.5148302473969721 M-214.226694075037 32.73621230593049 C-204.76978600952316 20.17362867422964, -196.29072451022185 10.1104230154254, -190.5098051391754 3.4781160409321217 M-215.48509038111214 32.68812175208801 C-208.27223553531465 23.08879290513486, -200.96517560110075 14.727679062770807, -190.0562541531611 2.837761937523368 M-212.37743388461473 31.894316598273306 C-204.44825020813266 26.43908307896563, -198.94881122737345 21.78392786125066, -183.12640578786687 2.30745951328349 M-211.78517454555782 32.844872214331716 C-205.82458084923948 25.187484387123597, -199.7171054490137 17.738702309683777, -183.94562082572685 1.9783669743679155 M-207.93181658475766 34.42635243893339 C-202.77842190300422 26.30455137217445, -196.15722657302075 19.83628756028383, -176.55765220377023 1.3709738993311618 M-207.13273189994612 33.043172976418575 C-195.11953894962159 22.288111170433208, -184.6140597554592 10.36804118387142, -178.17813763714756 0.9186193424502704 M-204.149775174853 34.86670236726252 C-192.90300892554643 25.919245162238802, -186.8505584569139 14.917948892705429, -171.9175659243013 0.35492862275857817 M-202.57446912530492 34.46502010309098 C-196.14839474661224 27.847572687920124, -190.06096267552363 19.908741624120808, -171.40557636897967 0.602753553344499 M-199.7547061923165 34.7610108069442 C-193.87480206874017 28.671150858876118, -186.6597673686289 23.696672542767764, -168.90672231480926 1.0664507938086558 M-198.58247050319054 35.749960605923064 C-187.39912189642493 22.990038586250584, -175.97141467536198 11.413138924249122, -169.48442669321298 2.6984008676841427 M-193.6202058285544 38.74752238688467 C-185.2861215442555 30.428791718547384, -181.60201275165602 19.71028092703483, -166.72174707573845 5.665962345496524 M-194.14718403164989 36.98268076421169 C-185.27821468690632 27.903834405399458, -178.76842473899347 20.078533300771632, -165.79164267943247 6.735276431374956 M-187.52045187098247 36.110162780767396 C-181.19549212861153 26.04497159561749, -171.6042277428887 17.617003374959122, -162.6465836195045 7.540904576505696 M-188.93405336723936 38.15233696453096 C-180.78061380615222 29.83298576573189, -173.95307412650234 21.949772621868647, -164.22216017169438 8.885153818491077 M-183.4729988479785 37.614586608166974 C-179.28269197941174 32.36058797110432, -171.66565799548403 22.70422135241168, -164.11499307049476 14.368238151187967 M-185.03256296997733 39.89485360184608 C-178.86700646706956 31.297485144933255, -173.11299645962882 24.181081774036457, -162.6576467885267 13.930615031274925 M-181.8967467679676 39.77829121254406 C-177.3864799080905 36.228013376958586, -170.55031869989668 31.886898842281187, -162.18064106213444 19.893976038004 M-180.5204568424296 40.66928685750834 C-176.46362651897863 37.00133631722965, -173.60128815967545 31.018702835727645, -162.84283871999526 18.95083343857779 M-176.2668543223562 43.21608372280497 C-171.46408332427086 37.52959421564685, -168.39891550160658 33.228461480556064, -159.51595191082976 23.523940990860083 M-178.52490173264317 43.00954176081467 C-175.00218427445 38.544733836403104, -171.26412154894717 34.57861106281234, -161.79064490164689 23.818581257196584 M-175.86512082755047 46.19316189285591 C-169.11168492163958 39.46819838735365, -163.85782201187658 30.983911655102318, -159.162490557987 29.87684638866247 M-173.37911907616484 43.98370302856192 C-168.0318673929616 40.01096051618855, -164.1512982272858 33.29862607933927, -160.93877895652852 28.659560391428187 M-172.33780877415063 46.55293993719121 C-167.49455598031037 45.68806032020968, -166.40864510751985 40.42338448180297, -160.44232810642652 35.65848799093254 M-171.66159266812699 46.98059380429064 C-168.83215261807635 44.94243068420885, -166.242499520505 41.81345168695631, -159.56487006908364 33.8354085689094 M-166.4490673084232 49.291782468392704 C-164.1951377199309 46.61350836362527, -162.85425942916717 43.601215471398504, -159.19042922106186 40.84972171552398 M-167.3676668415266 49.97372003386096 C-165.67520214207715 47.90741192240618, -163.7559071812149 45.15059639955146, -159.03874590747603 40.35495181653567 M-223.09600248277314 28.004630027610006 C-223.09600248277314 28.004630027610006, -223.09600248277314 28.004630027610006, -223.09600248277314 28.004630027610006 M-223.09600248277314 28.004630027610006 C-223.09600248277314 28.004630027610006, -223.09600248277314 28.004630027610006, -223.09600248277314 28.004630027610006 M-216.20745241454884 29.373966026619062 C-218.27397049853315 26.654075535299945, -221.3172775175584 23.580105719992844, -223.1545200291043 21.83419867442618 M-214.7145751329054 29.65322823760657 C-217.34651269297663 27.76020118159931, -219.6406443297157 25.701364283435137, -223.93145198756363 22.151631884702248 M-207.2277215400901 31.73199977016155 C-212.92349672239192 27.673301258263173, -218.3260957281697 19.651719602442128, -225.23895136407694 18.119099999500662 M-207.2919350628 32.08104504028414 C-212.68328164116645 25.614857555192394, -219.78517519558295 20.261759529952982, -223.80890615518322 15.831378508081883 M-198.68200614723253 32.85880904829666 C-209.81065806796545 25.950428458296738, -215.7092579560619 17.644150638558195, -223.10843984994 14.380182788509572 M-199.36640352523762 32.312975364723954 C-205.8709383172726 26.91935342720751, -213.3935855168099 21.68840131048744, -223.13840031183219 12.158726790722156 M-191.41827283980157 33.49828479255608 C-199.40083136326413 26.39758302525756, -208.9242203564427 19.633627877423724, -219.41133864388595 9.562196203799033 M-193.01301615958866 33.643495350173325 C-202.9316214787968 24.604431337900948, -212.89896486452122 14.437954856147599, -221.2470393728165 8.452309998043859 M-184.93086509464905 34.05663169886502 C-196.6772422363942 26.07242917362084, -205.52210972568457 15.415343806692647, -219.14704726754383 3.580919595284783 M-184.59785106184557 34.9770091554481 C-191.43550546072794 28.65601766772305, -200.3456757288699 21.65548281049065, -218.60068404140577 5.0802085053533546 M-164.4796562487258 48.58624372593989 C-180.80229771922538 31.902881944619594, -200.71660329742363 17.670053878537917, -214.73718670709707 2.43964099586357 M-163.30818025059983 48.90414926465531 C-184.39158559831358 29.69632085956602, -206.0299652847405 11.51133283964085, -215.79933054792411 1.6943004334380163 M-161.30286381801722 44.08318663109514 C-174.89232472562384 31.877217281230358, -189.39539965875193 19.641265594070955, -214.35222815395198 1.3234800344416584 M-160.77153398597744 45.90550902300003 C-179.55621522200218 27.78396479642893, -199.76852253035236 11.618265061391327, -212.30998939041845 0.23083456159473315 M-158.83143280925137 40.869194652037635 C-175.85037183815768 26.939794854093208, -193.56324582222814 12.166876953037715, -209.21928342451477 -3.682053035074702 M-159.6763340813471 40.63988931857975 C-175.83713735415043 26.600608315525253, -191.0638924539528 12.888964618492068, -209.1807257544356 -2.46476064337962 M-159.39243087838895 37.201271100654665 C-175.9903023951585 21.124965344793118, -188.19451138810817 8.987392864484956, -204.43931454041447 -3.1846163627697877 M-157.88153906181014 35.46014917617238 C-174.6336536445514 22.787122391192646, -192.23410760159322 6.388859831788658, -204.26411909324523 -4.325186056178694 M-157.44148546683624 29.487191855852473 C-173.91988411795964 16.469474223902033, -189.26969939203846 2.6684852151982277, -199.27608582738904 -4.142241357765812 M-160.05533130041346 30.53495925007479 C-169.3547189540089 21.2953749688952, -178.2193264902975 12.737807301490953, -197.9124652267259 -2.812226748034078 M-162.87057422122223 24.004064392546823 C-172.0866087078187 16.8527624943858, -181.81929868389068 6.348388979649304, -192.765759717513 -3.3614229781280187 M-160.38915743792666 24.473610853093376 C-171.75570616770744 13.53328120131098, -182.75301134208402 4.542608117928761, -190.9936221435928 -2.5085922766203907 M-163.29697709228486 17.24112292661546 C-170.9085433603798 9.332754785930522, -177.10283630844842 3.299621495156666, -184.98701052719264 -2.530088469950215 M-161.29293048172832 16.5750611014965 C-172.1028232673449 9.783849849283783, -180.2117329378145 1.9003130713049305, -185.56737377939282 -3.244635425140814 M-162.97603027042788 9.125296286920074 C-169.58482827573363 5.3815382803239, -173.46296151373517 4.592332459769078, -176.72204637933825 -0.5466267409741825 M-163.67713356781607 10.86802806203066 C-169.94272162212687 5.025887773414962, -175.39828551853083 0.4281026092732595, -178.84116916070997 -2.4224063341978876" stroke="#fff" stroke-width="0.5" fill="none"></path><path d="M-181.2954938245725 -1.056510129198432 C-186.95805974475985 -1.2689456795082865, -206.73501356298104 -4.95262129926256, -213.59515626817054 -0.21973816904507693 C-220.45529897336004 4.513144961172406, -226.81062232717565 21.223583551458713, -222.4563500557095 27.340788652106465 C-218.10207778424333 33.45799375275422, -197.0397184906107 32.62548284871253, -187.46952263937365 36.48349243484144 C-177.8993267881366 40.341502020970346, -169.4981709751832 51.14402237221617, -165.03517494828714 50.488846168879924 C-160.57217892139107 49.83366996554368, -160.02611712667982 40.61248477094371, -160.69154647799732 32.55243521482394 C-161.35697582931482 24.492385658704162, -165.83720821437907 7.433162463815632, -169.02775105619222 2.128548832161274 C-172.21829389800536 -3.176064799493084, -177.90601926318368 1.1656904171403988, -179.83480352887625 0.7247534248977898 M-179.57892611874007 1.0032181076332929 C-185.36046344991718 1.41180267055319, -206.71517917213959 -3.856740992862201, -213.91343616399024 0.7114107170767324 C-221.1116931558409 5.279562427015666, -227.22235207546194 22.316904023140367, -222.76846806984395 28.412128367266895 C-218.31458406422595 34.50735271139342, -197.1372299454686 33.48004540370527, -187.19013213028234 37.2827567818359 C-177.24303431509608 41.08546815996653, -167.74907892085338 52.18657692659665, -163.08588117872637 51.2283966360507 C-158.42268343659936 50.27021634550474, -158.3652226266999 39.92089330133547, -159.21094567752036 31.53367503856019 C-160.0566687283408 23.146456775784912, -164.5990376740835 6.033313069889071, -168.16021948364912 0.905087059399035 C-171.72140129321474 -4.223138951091001, -178.81611349220384 0.6671613841128096, -180.57803653491402 0.7643189756199718" stroke="#fff" stroke-width="1" fill="none"></path></g></g></svg>