<svg version="1.1" xmlns="http://www.w3.org/2000/svg" viewBox="0 0 123.076171875 118.525390625">
  <!-- svg-source:excalidraw -->
  
  <defs>
    <style>
      @font-face {
        font-family: "Virgil";
        src: url("https://excalidraw.com/FG_Virgil.woff2");
      }
      @font-face {
        font-family: "Cascadia";
        src: url("https://excalidraw.com/Cascadia.woff2");
      }
    </style>
  </defs>
  <g transform="translate(15.873046875 13.8359375) rotate(0 46.06640625 45.43359375)"><path d="M8.401013228773786 19.22800632413103 C8.401013228773786 19.22800632413103, 8.401013228773786 19.22800632413103, 8.401013228773786 19.22800632413103 M8.401013228773786 19.22800632413103 C8.401013228773786 19.22800632413103, 8.401013228773786 19.22800632413103, 8.401013228773786 19.22800632413103 M3.290176886978644 29.507677704059653 C7.943221502596575 24.697523865090474, 13.808643125325117 17.39111399699798, 21.748317977213645 9.173598950707314 M4.65379748764177 30.837692313791386 C8.302880392873494 26.05407824637716, 12.11399940141683 20.01067554327158, 22.086825323091233 9.261691807747779 M-0.7950920182257057 40.9530807580485 C13.638307987356637 27.58372107343068, 24.234141235522394 14.03734301696199, 33.115434783715216 5.74763416047205 M0.9770455556944846 41.80591145955613 C8.144495140068496 30.793737846115906, 17.158245229696362 21.63069164124832, 31.43434993384352 4.100846003880694 M2.9486524469193505 44.901904138349664 C11.53799267687563 35.30776211448715, 16.200784242475457 29.510805918134334, 36.21573567805234 1.7512631850469305 M2.368289194719164 44.187357183159065 C14.263849809608788 30.15710795242515, 26.148855022945472 17.198515467684803, 37.119366760788296 2.927257932365258 M5.200886993121475 50.935626186542656 C14.119841427169366 39.89209965346176, 20.73050695199411 28.941012134168677, 45.0594352387713 1.351917127224354 M2.970231433782846 48.961121351570334 C12.704122517611223 39.557798324559265, 20.885737445304997 28.865704817075258, 44.864340138331215 1.9163237838844935 M4.39427411195544 55.345181746088194 C23.21382696113014 35.95573221369358, 39.08762877857888 15.009388747609101, 52.382312274465846 1.3284656159105666 M4.716847020319676 54.26204139614128 C20.895291932039658 35.83100657550308, 35.61349467473886 19.119246571669805, 50.499134568425404 0.45741733773527216 M6.811276641005495 57.51410586566975 C23.467744148976838 37.9681428785172, 40.243438751436955 20.903437498784896, 54.895327881758206 0.6242976456801337 M7.023746985273281 57.67009401594599 C22.526876441306435 40.44389576469584, 38.59934667249698 21.75171084452215, 53.804382778552466 1.6132208013827842 M9.209539705884385 64.49045295963911 C24.841315741270286 39.153679141284115, 45.16613123561749 16.238301820592135, 56.47059767722315 3.372144934993763 M8.007310585115778 63.6885643382269 C28.045824715393344 39.01965133777272, 49.003942504731285 16.084575631921133, 59.29120795364654 5.050798168678362 M8.039685865185849 68.27574890690254 C26.780976855071835 49.606423565657536, 42.42377980643247 29.949324351379808, 60.79859665243542 5.730129827312155 M7.296230446800283 68.93924801728086 C20.896179451719814 53.770746807633074, 35.67447406671767 38.73434670709712, 63.45217859114176 4.783893120973332 M9.350992197456183 70.62336231025242 C23.074245445084404 56.7891372353304, 33.3321220619291 45.34092995066044, 66.70142305800779 7.963103611987112 M10.530939654732467 71.86707249379091 C24.137831733234457 54.80613693382314, 38.279805422409254 39.453993308612326, 65.66832238501026 7.160517348010121 M13.544063895327096 74.66693861948607 C27.8092042347499 60.047105340032175, 39.01668664570204 45.63276002167274, 68.66271160652448 8.222179462702112 M13.710035344903414 74.274781117945 C32.918921392538586 50.455248467246555, 51.70761255527214 29.513041899619125, 69.33278942869563 9.548733486362831 M15.837101642392344 78.17167558850979 C39.261332133715214 51.851742045179904, 60.258132220411525 25.957640307666964, 72.79695638556977 9.871361178140624 M16.250296081766255 77.48045860654001 C32.06156163095797 59.38371638951516, 45.83262574674009 42.851507706954905, 73.41392512814154 9.569533860105558 M20.923106468255178 78.37037117645255 C32.39796142833449 62.21284527518361, 51.85462204612911 42.9446511678708, 78.81883377075638 10.814171922654445 M19.237636713283614 81.05982894409559 C40.83136304108726 54.68729159432996, 65.28460528083556 27.356426363053984, 79.01834311482008 11.329719221480723 M21.531615864490348 84.00708522677508 C39.76939995535382 63.57479350274524, 51.77227034218589 47.58827025025792, 80.60493854168757 17.5373159053726 M22.58259448688962 81.79616706196305 C44.25528317351123 57.063485091415366, 65.21268444056052 31.699707159259958, 79.54641136169388 15.371810430007976 M24.429849610701112 84.92789694860642 C44.528359359804874 62.84468013910394, 63.96452540972693 38.93463143430258, 83.44340193993811 18.6637592197558 M24.6152248755469 85.17730631966208 C40.048666916549465 69.34036487680335, 52.58465189737616 53.664767998904544, 82.5356202411971 19.13337929203865 M28.984445890481204 88.12456659585277 C44.58630744718464 67.3953542216961, 63.26579046140069 50.529803824494266, 86.69109652410171 21.788777744710284 M27.24058769370857 88.3455501839895 C50.510161475979785 63.32001544731037, 72.51679107643253 38.94077686083135, 85.9115373802828 21.689346461869615 M33.75502032040541 90.04232588697488 C47.45032230941868 71.48496945521616, 66.58689538512141 52.517219802856076, 89.02325422777217 27.033037984142307 M32.12605612630878 88.31171264879669 C43.58167538201654 76.44770228536991, 55.8632939134067 62.46037880851205, 87.83117571840417 26.211312281297747 M37.15137080507695 91.41592590610175 C57.73467997705687 68.24051918188307, 77.16003821853721 46.68716151850034, 90.3709663595432 28.105097066958116 M37.952271583810145 89.69741613610326 C49.12407834282564 75.88833441599378, 59.58729318685931 63.07412424475033, 90.2142435075143 28.93630677961992 M40.683095595108554 88.82271794258519 C54.09622859426707 76.64973180513435, 68.4513663539764 59.547455474519225, 91.20262457401806 32.11861232728675 M41.25651176018475 90.19442233565165 C55.179786416083616 76.07917992814023, 68.26123364360319 60.56574689176557, 90.61833528307581 33.89024925385579 M47.521329403084515 90.72631517010866 C60.8015032717717 77.75245164529994, 72.30238326018362 60.14020668686895, 91.11747990079999 39.90013172425721 M45.58817674887627 91.51454388401596 C60.27100335892405 75.94226258605538, 74.53099380731548 59.90715843856431, 92.42624089305133 39.101988688525 M49.81200728759856 93.55793096757843 C67.73973879753605 72.94054943328109, 82.01526136616235 57.12290522463521, 90.09526080247326 43.54217468155298 M50.41580292683781 93.37723268549307 C67.45547193898864 74.26919739220862, 82.6208212091457 56.028767557111856, 92.6893135558845 45.062634595201644 M53.925482711234935 91.26945975867795 C65.94524268059008 79.74958981396776, 76.44538476620104 69.60345173400287, 93.7776141456126 52.22044166763475 M54.97043101251299 93.96891075165706 C67.88939423729649 76.8088449484849, 82.15419966631944 61.96371587689039, 93.00266083150942 50.449016592737046 M64.36220462753994 90.13184827119964 C68.73999530518346 84.3254375419587, 76.82157424776678 74.86508794898697, 90.7813690848213 58.27515251663158 M63.74503315280748 88.64759146069098 C72.78581780701762 80.21383717356758, 80.94396582396058 70.18355486686588, 93.41215850538876 57.11127272815088 M25.127708531089233 85.41285946291316 C25.127708531089233 85.41285946291316, 25.127708531089233 85.41285946291316, 25.127708531089233 85.41285946291316 M25.127708531089233 85.41285946291316 C25.127708531089233 85.41285946291316, 25.127708531089233 85.41285946291316, 25.127708531089233 85.41285946291316 M31.300898246171485 88.42258894332583 C27.369081251691835 82.73303758773426, 21.627895525685993 75.94142831074292, 6.997674441101353 67.19919524927718 M33.24144236620755 86.42780720424737 C27.4677396190236 81.97773876587011, 20.36198887999175 77.23928518018994, 8.42081194850276 65.46981502258313 M41.32414731593154 89.64742807564677 C29.345589982084682 80.76905740903202, 18.98263003813222 72.02201841005129, 7.800433449776893 59.23943852876938 M41.47250288096539 88.91890782476754 C31.54172096672631 79.34730904490804, 22.038932715143996 71.08412477560495, 6.189949258560365 57.55704431572622 M50.42349768879217 89.35826917635148 C31.285572014637026 78.18325196872183, 16.271597084063863 63.63307017524846, 5.199740538896766 51.25207293680161 M48.83984440921199 90.83081056168174 C36.73038114159229 79.08524860711414, 24.818489204572543 69.60285526282107, 4.677429349684861 50.76865848893523 M53.39206172745607 89.60232388338423 C34.26611073522019 73.30802650695699, 13.069584528264159 54.26763146138706, -0.7710575538363642 40.6378257363181 M54.69453219450942 89.15423901582486 C38.2674662371842 76.24758152580903, 22.3712602569933 62.23061603644077, -1.3701747220617122 42.652998330544996 M59.43677823118525 88.73210766262274 C39.40814683431756 72.34781883541245, 23.21688072403331 55.356798487412874, 1.3198081480672919 37.225818308101694 M58.49579385447907 86.47525967846524 C36.6125667023077 67.75177766491356, 13.89624241066305 48.917106222058166, 2.2302182756698095 37.633087809228996 M61.323526213796285 86.5634085469638 C48.5370383687154 74.00957588873733, 38.58340143856554 65.85950842651332, 2.051645650973759 34.09370499115357 M61.549883158796874 85.0395006703903 C47.04034493467648 72.08230212463548, 32.682691868272904 58.45550949318489, 2.441064542604826 33.733022914379035 M65.31462490366015 81.43778713632314 C45.36065474455577 62.42114599119189, 23.59145877040801 44.702678479215244, 5.503637298922339 29.592239097361 M64.54133002919319 83.72090174190639 C47.61142355905086 67.09093062213338, 29.5035740961781 52.970079086544146, 3.9502805536420134 29.508787670773 M70.8798816448161 80.56537174258803 C51.98524683684181 68.68459555938878, 36.09617825282267 55.50149008163965, 7.116986490061228 25.9108284476492 M69.83773844056665 81.27075941779141 C43.75645370675973 59.6952670815368, 18.128593172219198 38.187253411133035, 4.627139775288944 26.520059674726745 M72.10583441563513 81.15100421567419 C52.894221974365905 62.43569997294531, 31.792566174554416 40.86964746382296, 7.670094318429728 21.388507603905456 M74.49277893964764 79.35012282335171 C53.3380889501341 62.75528825752173, 32.63302655567635 43.964639406224144, 8.091199307444294 22.54743232601817 M75.89738056948825 79.4249170304974 C52.00275418795191 58.22426610433149, 30.616173366762787 37.15990697512864, 9.933092512398812 18.9840246660455 M77.04156738566651 78.46672077139368 C54.93272932441129 59.797269174017686, 33.90785214373008 40.402697743262316, 9.960582821838411 17.96875162495364 M80.66998641496916 76.3612923159639 C60.268423189373664 59.49439273800395, 38.53653275529566 39.40033151244668, 11.133600916007778 17.274695445956592 M79.78662453057636 73.5997707912142 C63.83942718326615 59.901360393420525, 46.936810293459224 46.554069817018956, 12.91148804336997 15.664220346311037 M80.28718721589442 72.74076185497042 C64.5165272682719 55.8707215863238, 46.29875694616421 40.507768926122935, 15.611260427404828 14.926490264563977 M81.32912601905312 72.16872912860062 C67.6858199020056 58.52800316252292, 53.729519728851955 45.59292506936022, 14.926469688546545 13.39273483640623 M83.73395845063499 68.24472999743271 C60.64722733255499 49.64732791566072, 37.35860109867481 26.84095368735767, 19.283490480183715 9.692888125773901 M83.83602364782712 67.03386365885932 C61.18893210829974 47.86285113774733, 39.657882008840026 29.784554337581902, 18.353946946821267 11.696989187036092 M86.82776371323015 63.79816880523808 C63.89641972325414 42.1892168317151, 38.395283825610996 22.99103263214767, 22.073569882938187 10.165258658492615 M87.34484326679703 65.74529903176821 C65.10531199180839 46.887596623873854, 45.81028198372655 28.770325404768002, 21.930034320147257 9.560107177497496 M89.62779723205092 62.695763878302216 C77.60771255536834 52.38205638366235, 62.21038832904782 38.43304430133793, 27.848136819261995 6.835362116626365 M88.76667729769322 61.575412497633636 C66.92858737809055 42.89691684556476, 47.25392035536524 24.15695118731901, 25.30979162297764 6.374392274587317 M90.63661261046825 59.63259144154088 C75.81660882852856 45.23810115638189, 65.05393744428184 35.48243678994713, 30.35468884774889 5.157849379081407 M90.68156347474603 57.455760994261965 C75.60377073487479 45.116172316242775, 58.45190087605206 31.078730972076713, 28.598473982265546 4.910077632602432 M92.73762282685313 53.76661834486983 C77.9895722617873 43.5824956451726, 68.38640329370241 30.459247740110413, 33.15908290199262 0.6127619497639838 M90.86973484468582 52.945831146959584 C70.83586516766563 34.72597361050208, 49.496599792353855 16.90809858816185, 32.882781837464094 1.2840760933397117 M92.64201939502206 49.093320121185826 C73.45590396482497 33.28426588053959, 57.71164323939094 21.110527211285394, 37.09245445103248 1.0801500155613688 M90.35228892718848 47.51390732651387 C78.70406146067701 36.370593852087644, 65.95931053342677 24.995197419065054, 37.27153010097196 1.2408482440770534 M89.31685320379157 42.19606292838559 C78.81154188659745 28.36788673184741, 64.87468025161746 19.0090737296724, 43.66046001801668 -2.033781727601209 M91.4130185544299 42.193703591212184 C79.07450049894801 32.48598177713083, 69.07907542739257 21.996867923527592, 42.89864067679672 0.18479824363031128 M91.9225345169782 37.3086035493659 C78.82780394026112 25.066888009027284, 69.50241048995925 17.559427048398902, 46.263744241761735 -0.14176087182699249 M92.129661871086 37.553113686841925 C77.3326216565216 25.55495580827136, 64.4046085128155 14.949013699683238, 47.73735952211427 -1.2585629747131328 M91.48620423273013 29.409412305052 C80.88287573798605 23.99604507080265, 73.02464917504038 17.89186922201735, 52.85247281519308 -1.0053605001812471 M91.64102359366433 30.69478395971896 C82.76857874281058 23.477441128602276, 74.10774540908803 16.273551811969806, 51.84853958570942 -1.866280906127919 M81.06568598241343 20.003877909445055 C73.73645654588043 10.779202447154171, 66.85676421101594 5.067031954696645, 61.44860492935496 0.13656333513784702 M82.90467710939033 17.944568211735078 C77.05200590581838 14.260719360616562, 71.24823290172144 9.815390920605596, 62.49666325198578 0.9598550475783973" stroke="#ffffff" stroke-width="0.5" fill="none"></path><path d="M49.90413908885711 0.520365271017404 C57.94445017471962 0.7288964638834324, 69.46552979319152 5.577407619263339, 76.2618583059199 10.809225112887354 C83.05818681864828 16.04104260651137, 88.20983409701547 23.936779786449097, 90.68211016522741 31.911270232761495 C93.15438623343935 39.88576067907389, 93.59771490257057 50.703707351762944, 91.09551471519151 58.656167790761735 C88.59331452781245 66.60862822976053, 82.14486413456888 74.22153456657722, 75.66890904095303 79.62603286675426 C69.19295394733717 85.0305311669313, 60.65697162346732 90.11317004373355, 52.239784153496444 91.08315759182398 C43.82259668352557 92.0531451399144, 32.85534700774314 89.37183189346689, 25.165784221127748 85.44595815529686 C17.47622143451235 81.52008441712684, 10.36748211992909 74.74190361910043, 6.102407433804068 67.52791516280382 C1.8373327476790449 60.31392670650721, -0.7878490451535025 50.18910169809039, -0.4246638956223876 42.16202741751721 C-0.06147874609127274 34.13495313694403, 3.075255847874529 25.7790866661686, 8.281518330990757 19.36546947936473 C13.487780814106983 12.951852292560861, 21.96226437131626 6.547177046639071, 30.81291100307498 3.680324296693996 C39.6635576348337 0.8134715467489211, 54.586458719236646 1.2202317694453129, 61.38539812154309 2.1643529796942786 C68.18433752384954 3.1084741899432444, 71.8553936763628 8.464076895374692, 71.60654741691363 9.34505155818779 M62.657759409392185 3.815678850860195 C70.37593967408631 5.854373499935594, 79.2202683625906 12.09108146748759, 84.07488654240096 18.697369352168483 C88.92950472221132 25.303657236849375, 91.4773225065243 35.19433848278553, 91.78546848825437 43.453406158945555 C92.09361446998443 51.71247383510558, 90.12875546694698 61.17101710762802, 85.92376243278139 68.25177540912861 C81.71876939861579 75.3325337106292, 74.35316136881947 82.1636276903699, 66.55551028326076 85.93795596794911 C58.75785919770205 89.71228424552831, 47.3877638067182 92.12122713966292, 39.13785591942912 90.89774507460385 C30.887948032140045 89.67426300954477, 23.42395109004248 84.21961634040254, 17.05606295952629 78.59706357759467 C10.688174829010102 72.9745108147868, 3.5018535757694456 64.95413762710838, 0.9305271363319889 57.16242849775662 C-1.6407993031054677 49.37071936840486, -1.1908792070615406 39.5809146393773, 1.6281043229015495 31.846808801484137 C4.447087852864639 24.112702963590976, 11.32063391859976 16.126766597160593, 17.84442831611053 10.757793470397651 C24.3682227136213 5.388820343634708, 33.2975642886979 1.0333586117191977, 40.770870707966175 -0.36702995909352154 C48.24417712723445 -1.7674185299062408, 59.229348203816016 1.7659198653879487, 62.684266831720166 2.3554620455213353 C66.13918545962431 2.945004225654722, 61.75629859973267 2.583690016653493, 61.50038247539107 3.1702231217067975" stroke="#ffffff" stroke-width="1" fill="none"></path></g><g><g transform="translate(105.5585343291645 136.27784908746457) rotate(26.046735778423507 -32.756475543715624 -82.63394511093492)" fill-rule="evenodd"><path d="M-34.86625754173715 -68.77190030174434 L-47.45992905460298 -82.13279949133394 L-47.995591488148804 -89.56517636980593 L-45.01961331186783 -93.24895836576937 L-35.6514179569835 -90.57654092387953 L-32.38190199609992 -95.38659092407707 L-23.744472977918946 -96.9098064545542 L-18.750798098037894 -94.92098600915904 L-19.198093396882896 -87.99893496574089 L-33.32777708109338 -68.78158456640422" stroke="none" stroke-width="0" fill="rgb(145, 2, 46)" fill-rule="evenodd"></path><path d="M-33.59523198913653 -69.49745071711122 C-35.58853625173883 -71.79472773313472, -44.53205544210644 -78.63887098973103, -46.50402922965586 -82.29234946896432 C-48.47600301720529 -85.9458279481976, -47.413790252966194 -89.85025968778284, -45.42707471443307 -91.41832159251092 C-43.44035917589994 -92.986383497239, -37.20934835760621 -91.25148338419436, -34.58373599845713 -91.70072089733281 C-31.95812363930805 -92.14995841047127, -31.590765027853635 -93.33493838164011, -29.673400559538575 -94.11374667134169 C-27.756036091223514 -94.89255496104326, -24.774580378204362 -97.0512528241594, -23.079549188566766 -96.37357063554228 C-21.38451799892917 -95.69588844692515, -17.912795333945997 -94.67623664219721, -19.503213421713 -90.04765353963896 C-21.09363150948 -85.4190704370807, -30.178335759336196 -72.16262051243918, -32.622057715168786 -68.60207202019274 M-34.98138566985596 -70.44177272496849 C-37.03177301108108 -72.56633794303933, -45.92089569251658 -80.17659853757777, -47.271670507602394 -83.98447722599951 C-48.62244532268821 -87.79235591442125, -45.330252362688384 -92.10275808795693, -43.086034560370855 -93.28904485549896 C-40.84181675805333 -94.47533162304099, -35.869623160685876 -90.51650284268945, -33.80636369369721 -91.10219783125171 C-31.743104226708542 -91.68789281981398, -32.73504604388305 -96.28386313765297, -30.706477758438858 -96.8032147868726 C-28.677909472994664 -97.32256643609223, -23.661477874822694 -95.67031208758993, -21.634953981032037 -94.21830772656948 C-19.60843008724138 -92.76630336554902, -16.642500389339276 -92.39896553114846, -18.547334395694918 -88.09118862074986 C-20.45216840205056 -83.78341171035126, -30.754534324737328 -71.46357099071729, -33.06395801916588 -68.37164626417785" stroke="#ffffff" stroke-width="4" fill="none"></path></g></g><g><g transform="translate(81.29070080960719 140.34550569206056) rotate(330.25055228459854 -33.52062335214838 -82.15497599382542)" fill-rule="evenodd"><path d="M-32.12160004388411 -69.40982143761694 L-48.55107876099646 -85.02027681102155 L-45.413290128525134 -87.29624597560345 L-45.480554764400836 -91.35381358653424 L-35.11777949828451 -91.31450106503168 L-30.455875551217765 -96.1640700175989 L-21.437796370339953 -95.32328200899065 L-19.62928629968589 -92.42496775961752 L-21.90116977811921 -88.19893362389132 L-35.46300466071684 -70.35208057047903" stroke="none" stroke-width="0" fill="rgb(145, 2, 46)" fill-rule="evenodd"></path><path d="M-33.94162384506185 -69.37872808830916 C-36.152248621389425 -71.5545231373603, -44.9280682601747 -78.57361196299502, -46.84401432536542 -82.51290446524618 C-48.759960390556145 -86.45219696749734, -47.29531067849448 -91.52272036376745, -45.43730023620617 -93.01448310181615 C-43.57928979391786 -94.50624583986486, -38.15863881124882 -91.25097116646407, -35.69595167163556 -91.46348089353839 C-33.233264532022304 -91.67599062061271, -32.86550296932736 -93.81011125969688, -30.66117739852664 -94.28954146426204 C-28.456851827725924 -94.7689716688272, -24.244577056288495 -95.26090062344267, -22.46999824683126 -94.34006212092936 C-20.695419437374024 -93.41922361841605, -18.22171453648234 -92.91506227408394, -20.01370454178322 -88.76451044918224 C-21.805694547084098 -84.61395862428054, -30.93041256322904 -72.46202122424381, -33.22193827863652 -69.43675117151916 M-35.50963325014208 -70.26072071604534 C-37.89143437479825 -72.81002593448335, -46.52481524007069 -80.68707852180535, -47.79014777855948 -84.32082359532936 C-49.05548031704827 -87.95456866885337, -45.149571011619024 -90.99326061883346, -43.10162848107483 -92.06319115718944 C-41.05368595053064 -93.13312169554541, -37.31729110249085 -90.51572171065075, -35.50249259529432 -90.7404068254652 C-33.68769408809779 -90.96509194027965, -34.069021404630476 -92.73850177668955, -32.21283743789566 -93.41130184607614 C-30.356653471160836 -94.08410191546274, -26.513222808901 -95.38002498149692, -24.36538879488539 -94.77720724178478 C-22.217554780869783 -94.17438950207264, -17.7236021732072 -93.98317461977571, -19.325833353802 -89.79439540780335 C-20.9280645343968 -85.60561619583099, -31.291451450673925 -73.14015707621934, -33.97877587845419 -69.64453196995065" stroke="#ffffff" stroke-width="4" fill="none"></path></g></g><g><g transform="translate(98.76369842991824 153.86349726499884) rotate(351.56149145476394 -34.37703270601392 -82.0137691353317)" fill-rule="evenodd"><path d="M-32.96812165986616 -67.8547465074259 L-47.529123509302735 -82.21832230319379 L-48.26724277478063 -90.44443337451398 L-43.63448757423055 -91.84447687655805 L-35.92545223731344 -90.48528673054376 L-31.450735485070915 -95.04793704297427 L-24.58297826464232 -96.39850187860429 L-21.567612420062478 -93.36512445784444 L-20.205149890195017 -87.62292363510653 L-34.884836030116865 -69.57411287905752" stroke="none" stroke-width="0" fill="rgb(145, 2, 46)" fill-rule="evenodd"></path><path d="M-34.3986380719753 -69.11247542755783 C-36.69311142008022 -71.54267874076912, -44.904561857205344 -79.49603422900148, -46.561827197298406 -83.4580455422878 C-48.21909253739147 -87.42005685557413, -46.34051307679465 -91.6876887113169, -44.342230112533684 -92.88454330727575 C-42.34394714827272 -94.0813979032346, -36.945743370193526 -90.37513598618148, -34.57212941173261 -90.63917311804094 C-32.198515453271696 -90.90321024990041, -31.82551554829159 -93.77731044220727, -30.100546361768217 -94.46876609843258 C-28.375577175244842 -95.1602217546579, -25.716316014647262 -95.57215955937102, -24.22231429259237 -94.78790705539286 C-22.728312570537476 -94.00365455141471, -19.40181073361064 -94.13859385405526, -21.136536029438858 -89.76325107456371 C-22.871261325267078 -85.38790829507217, -32.423309358501875 -71.68322583888309, -34.6306660675617 -68.5358503784436 M-32.54657994618509 -69.85468540839955 C-35.05625014280171 -72.1819632296818, -45.26896797554241 -78.4337724774652, -47.35981240825728 -82.10216373781783 C-49.450656840972144 -85.77055499817047, -47.35350466902679 -90.63483734884636, -45.091646542474294 -91.86503297051533 C-42.8297884159218 -93.0952285921843, -36.07762555488152 -89.1800730607198, -33.78866364894232 -89.48333746783162 C-31.49970174300311 -89.78660187494343, -33.09304058755093 -92.68848053001787, -31.35787510683906 -93.6846194131862 C-29.622709626127186 -94.68075829635453, -25.097624720398116 -96.46469485878762, -23.37767076467108 -95.46017076684161 C-21.657716808944045 -94.4556466748956, -19.52324887382785 -92.18906027923197, -21.03815137247685 -87.6574748615101 C-22.55305387112585 -83.12588944378822, -30.51811906346499 -71.34249411354425, -32.467085756565076 -68.27065826051042" stroke="#ffffff" stroke-width="4" fill="none"></path></g></g><g transform="translate(10 10) rotate(0 51.5380859375 49.2626953125)"><path d="M46.16725016981034 -0.6361091878014093 C54.55936460556393 -2.3575651393714168, 66.36553897263377 0.16277992726621893, 74.64847910181737 4.294233567814906 C82.93141923100097 8.425687208363595, 91.12062360305167 16.49944137542971, 95.86489094491193 24.152612655490717 C100.6091582867722 31.805783935551723, 103.13769867210995 41.67199247368479, 103.11408315297898 50.213261248180935 C103.09046763384801 58.75453002267708, 100.43553038768529 68.26457315416823, 95.72319783012608 75.40022530246759 C91.01086527256687 82.53587745076695, 82.98829023032575 89.17081333446572, 74.84008780762372 93.0271741379771 C66.69188538492169 96.88353494148848, 55.88840911670706 99.11780445567585, 46.83398329391394 98.53839012353583 C37.77955747112082 97.95897579139582, 27.865064605279496 94.6894723454117, 20.51353287086498 89.55068814513696 C13.162001136450467 84.41190394486222, 5.96409687436862 75.93102538869053, 2.724792887426844 67.70568492188738 C-0.514511099514932 59.480344455084236, -0.5533414148369846 48.94174915179466, 1.0777089492143261 40.19864534431807 C2.708759313265637 31.455541536841473, 6.331608438847117 21.60014858194873, 12.511095071734708 15.247062077027806 C18.6905817046223 8.893975572106882, 31.855764860297096 4.570915884872184, 38.15462874653987 2.0801263147925155 C44.45349263278264 -0.4106632552871532, 48.0749209056538 0.44777720586079417, 50.304278389191346 0.3023246565497928 C52.533635872728894 0.1568721072387914, 51.695493391102836 0.4302049022781773, 51.53077364776514 1.207411018926507 M70.79335302754369 4.043505040278319 C79.46153565294178 6.228217030821151, 89.68493546376455 12.579532191278798, 94.90542537827214 19.826574489917846 C100.12591529277974 27.073616788556894, 101.68228746062408 38.61479332912327, 102.11629251458923 47.5257588321126 C102.55029756855438 56.43672433510193, 101.77437044294226 65.70782198064414, 97.50945570206308 73.2923675078538 C93.2445409611839 80.87691303506345, 84.60610085295824 88.59495725962671, 76.52680406931421 93.03303199537054 C68.44750728567018 97.47110673111436, 58.1782620988454 100.29685545062304, 49.03367500019889 99.92081592231678 C39.88908790155238 99.54477639401051, 29.007717324755852 95.79693950932501, 21.659281477435155 90.7767948255329 C14.310845630114457 85.75665014174079, 8.381996066787938 77.68464283528537, 4.943059916274713 69.79994781956411 C1.5041237657614883 61.91525280384285, -0.08548276480418449 51.96273579744571, 1.0256645743558082 43.468624731205324 C2.1368119135158006 34.97451366496494, 6.1665052285845485 25.61869991782338, 11.60994395123467 18.835281422121778 C17.05338267388479 12.051862926420174, 24.931689935457463 5.930808961272717, 33.68629691025653 2.768113756995696 C42.4409038850556 -0.3945814472813258, 57.588535661596794 -0.10171435317709174, 64.13758580002906 -0.14088980354035385 C70.68663593846132 -0.18006525390361597, 71.85873123149705 1.496639180119421, 72.9805977408501 2.533061054816123 C74.10246425020316 3.5694829295128256, 71.56114507690953 5.110909624163953, 70.86878485614739 6.077641444639859" stroke="#ffffff" stroke-width="4" fill="none"></path></g></svg>