<svg version="1.1" xmlns="http://www.w3.org/2000/svg" viewBox="0 0 267.84974210922127 343.11423161489756">
  <!-- svg-source:excalidraw -->
  
  <defs>
    <style>
      @font-face {
        font-family: "Virgil";
        src: url("https://excalidraw.com/FG_Virgil.woff2");
      }
      @font-face {
        font-family: "Cascadia";
        src: url("https://excalidraw.com/Cascadia.woff2");
      }
    </style>
  </defs>
  <g><g transform="translate(3.004573368015258 267.3526610295057) rotate(339.84019406844413 121.6509498898628 -60.80632494019528)" fill-rule="evenodd"><path d="M-0.0037495065480470657 -0.9924305807799101 L53.39396938881666 -12.09441114996595 L90.65381191484632 -18.937157114139872 L102.18319551018931 -24.853092778405113 L114.49139229104753 -31.186601947648114 L124.55270264194246 -43.739549811032646 L131.24727400233627 -53.251878000864835 L142.78070668689907 -79.6929369787513 L156.20966307853382 -127.93836436427574 L156.686482688688 -145.51151331024317 L161.9709181441339 -146.8872573947603 L179.3117086167826 -146.19226236896657 L198.84008223570325 -148.0511714880251 L229.33428104145926 -140.12673683278257 L239.7929639560342 -139.5896271111926 L249.32712171564768 -131.39063244595843 L259.53080667037926 -121.69083506952003 L267.66101751814557 -107.11690327614821 L270.7071748318633 -100.5591772351138 L270.2968590423051 -94.7646017977623 L251.17602713550957 -77.6637020020712 L217.84752148479492 -20.872639194475894 L206.33211862689086 -5.925799479984083 L195.6156114988994 1.6083811898887697 L178.93408238977463 11.934352786659588 L161.87297204116146 17.000463461641306 L139.5357243052373 20.70295768776144 L86.9759701521446 23.602369483077354 L-1.8446315164781026 26.55364215836198 L-11.15214630099079 23.422414729095657 L-24.51621192383265 20.59672385254111 L-26.758990871892436 16.39178672343212 L-25.0477013888044 7.765346668591633 L-20.320120252047936 3.6315973005774804 L0.8394980262964964 -0.5907726418226957" stroke="none" stroke-width="0" fill="#911c16" fill-rule="evenodd"></path><path d="M-0.8167593341320754 -0.9898178894072771 C18.492033134662996 -6.332537199561428, 88.96772354203337 -11.733704206260093, 114.66376806021567 -32.035848432434385 C140.359812578398 -52.33799265860868, 144.98660722759865 -103.79721566073043, 153.35950777496177 -122.80268324645303 C161.7324083223249 -141.80815083217564, 150.79786402879762 -143.5243750517981, 164.90117134439444 -146.06865394677 C179.00447865999126 -148.61293284174192, 220.48200293362225 -145.77499547625118, 237.97935166854265 -138.06835661628452 C255.47670040346304 -130.36171775631786, 267.98691333129904 -109.8492690818039, 269.8852637539169 -99.82882078697007 C271.78361417653474 -89.80837249213624, 264.5016400894495 -96.24060271524452, 249.3694542042497 -77.94566684728152 C234.23726831904992 -59.65073097931851, 220.802834171374 -7.220253339101745, 179.0921484427181 9.940794420807947 C137.3814627140622 27.10184218071764, 33.133736046546225 25.648315293971883, -0.8946601676857882 25.020619712176632 C-34.923056381917796 24.39292413038138, -25.274827010005104 10.444748034719115, -25.07822884267398 6.17462093003644 C-24.881630675342855 1.9044938253537635, -4.044993579732591 0.47476033573440957, 0.2849288363009692 -0.600142915919423 M0.9553032861091197 1.104923773314804 C20.18391859380667 -4.559538875543456, 87.7752273856575 -13.21566862516681, 113.55856931778501 -33.644344302685596 C139.34191124991253 -54.07301998020438, 147.0321421813903 -102.89946118408261, 155.65535487887416 -121.4671302917979 C164.27856757635803 -140.0347993995132, 151.8342062959123 -142.40679915960672, 165.2978455026882 -145.05035894897733 C178.7614847094641 -147.69391873834795, 219.33789490373888 -144.66370597567567, 236.43719011952953 -137.32848902802152 C253.53648533532018 -129.99327208036738, 265.70239561187003 -111.28410363840213, 267.8936167974321 -101.03905726305243 C270.0848379829942 -90.79401088770273, 263.9927585369507 -94.23202338422276, 249.58451723290193 -75.85821077592334 C235.17627592885316 -57.48439816762392, 223.3957219225547 -7.3856160965647515, 181.4441689731394 9.203818386744102 C139.49261602372408 25.793252870052953, 32.23807054967907 23.739116019770936, -2.124800463589918 23.67839612392978 C-36.487671476858914 23.617676228088623, -25.212991963873943 12.77425983212862, -24.733057106474572 8.839499011697157 C-24.2531222490752 4.904738191265695, -3.361020825533533 1.683578278454316, 0.7548086808063088 0.06983120134100318" stroke="#000000" stroke-width="4" fill="none"></path></g></g><g><g transform="translate(123.94120663857746 94.33705487161762) rotate(339.84019406844413 58.2762494860182 -0.5046029783552513)" fill-rule="evenodd"><path d="M-0.21349473483860493 -1.6043453942984343 L22.817628856955373 -0.04191300583388724 L24.939564637356966 0.6788922616590298 L27.427418400637045 5.1002400497456755 L17.870992076410754 19.262325399658696 L18.310180051252246 20.35649126568046 L55.86975132404932 8.807888483766552 L57.91359085596548 9.624040484635316 L62.99611134751254 11.966186044599675 L67.91823688791034 14.725177067504397 L76.8050217306311 30.541198874168344 L73.25027238970837 34.15334651667483 L69.25466703354493 48.3330128172895 L81.22491229553194 47.060328572091656 L92.29741496820418 37.32334106298231 L91.43713295990949 30.25648926384744 L92.95965080659983 16.818697644811436 L101.17234494599205 25.505012185692145 L106.09892301516675 39.10013363337896 L105.47214823388668 63.89739920937069 L105.36676154182192 65.78391421965694 L108.7035799962641 64.70635315244662 L117.93541890030933 54.366039340349694 L121.32777892308377 45.41778506635228 L119.3798078329613 28.172103297034276 L116.11489339759234 21.299248209912975 L112.99791779651969 11.085731261513274 L107.14075847114961 9.220466432954955 L73.3562658084902 -3.529340013102889 L69.5242050718517 -6.845307226327387 L71.17237212350256 -6.657575949267766 L73.90422833497058 -15.379965671579676 L84.3847675575289 -28.581266405198903 L91.54986896869491 -30.487967181881853 L114.85226649135632 -38.27067143587328 L116.86319380426025 -36.98349361487287 L124.51503073596574 -34.07122742005248 L127.3369385277922 -33.19978675115169 L125.25012983526628 -48.65216450096563 L120.76679699598924 -65.54608392253249 L117.57438010508548 -65.81497261459357 L116.01365200326677 -60.21325901681902 L113.30461956263969 -57.44158603285473 L91.71206007270075 -56.040826872336126 L84.12122178829657 -50.655834915254445 L54.58208798127323 -16.430683647937784 L40.91229238643973 -10.638294032119461 L29.577640622647337 -5.2611907983405395 L0.28948839374441926 -11.276294745573816 L-9.2645648355699 -9.19068821250562 L-12.184094531875495 -1.0052223004814396 L-11.875989303751652 5.194890000409025 L-7.053051614306014 17.670265416511256 L1.9865211080759764 -0.6395920645445585" stroke="none" stroke-width="0" fill="#aec37d" fill-rule="evenodd"></path><path d="M0.5300242323428392 0.7997194211930037 C4.816341983632738 0.5362723365012017, 23.64236447688338 -3.6792601701884675, 26.1803702222943 -0.3947172282885276 C28.71837596770522 2.8898257136114123, 10.466998832705038 19.001632478184675, 15.758058704808354 20.506977072592644 C21.04911857691167 22.012321667000613, 48.18342428496683 7.139824756993686, 57.926729454914195 8.637350338159285 C67.67003462486156 10.134875919324884, 72.05528543122854 22.550156347228206, 74.21788972449254 29.492130559586236 C76.38049401775653 36.43410477194426, 68.05429496318573 49.32810929098886, 70.9023552144982 50.28919561230746 C73.75041546581068 51.250281933626056, 87.63692637500296 41.07612936494434, 91.30625123236743 35.258648487497794 C94.9755760897319 29.441167610051245, 90.18949498183298 14.829904051009981, 92.91830435868499 15.384310347628162 C95.647113735537 15.938716644246343, 105.55191852938337 30.159447605792863, 107.67910749347948 38.58508626720688 C109.80629645757558 47.0107249286209, 103.47106403033769 64.46698396954172, 105.68143814326163 65.93814231611228 C107.89181225618557 67.40930066268284, 119.61791597423084 56.33033989886338, 120.94135217102311 47.412036346630245 C122.26478836781538 38.49373279439711, 119.9312829246722 20.3797678833896, 113.6220553240153 12.428321002713483 C107.31282772335841 4.4768741220373665, 90.21785056718434 2.8485248494800928, 83.08598656708173 -0.2966449374264585 C75.95412256697912 -3.4418147243330095, 70.60869212587039 -2.0311064277397275, 70.8308713233996 -6.442697718725822 C71.05305052092882 -10.854289009711916, 77.3598760023024 -21.5558410512307, 84.41906175225704 -26.766192683343025 C91.47824750221167 -31.97654431545535, 106.29318722613897 -36.6419784217935, 113.18598582312745 -37.70480751139976 C120.07878442011594 -38.76763660100601, 124.43622679926092 -28.459401080660847, 125.77585333418797 -33.14316722098054 C127.11547986911502 -37.82693336130023, 123.18087041490709 -61.44590727122577, 121.22374503268972 -65.8074043533179 C119.26661965047235 -70.16890143541004, 120.32500746230377 -61.6057979374986, 114.03310104088375 -59.31214971353334 C107.74119461946373 -57.018501489568074, 95.37871386617147 -60.52714620713195, 83.47230650416957 -52.04551500952634 C71.56589914216767 -43.56388381192073, 57.93053777345267 -15.643762090494032, 42.594656868872335 -8.42236252789969 C27.258775964292 -1.2009629653053473, -0.6598162260090161 -12.875359340237406, -8.542978923312466 -8.717117633960289 C-16.426141620615915 -4.5588759276831725, -6.070722246073433 15.127614301788064, -4.7043193149483615 16.52708770976301 C-3.3379163838232904 17.926561117737954, -1.2452727647981114 2.4258270273743996, -0.34456133656203747 -0.32027718611061573 M-0.6508517750166356 0.17396817198023218 C3.9818948980919964 0.5410061993594675, 25.366968946141718 -2.8469246009445897, 28.501819472593784 0.6620439780813194 C31.63666999904585 4.171012557107229, 13.247261803946067 19.71551725380463, 18.158251383695752 21.227779646135687 C23.069240963445438 22.740042038466743, 48.31542823576013 8.222533500189668, 57.9677569510919 9.735618332067661 C67.62008566642368 11.248703163945654, 74.22902824441712 23.64949177330173, 76.07222367568637 30.306288637403647 C77.91541910695562 36.96308550150557, 66.42464695813604 49.099257538093006, 69.02692953870744 49.67639951667917 C71.62921211927883 50.25354149526533, 87.89396233885493 39.52914046283374, 91.68591915911479 33.76914050892063 C95.47787597937464 28.00914055500752, 89.3082012007499 13.98779738979083, 91.7786704602666 15.116399793200507 C94.24913971978329 16.245002196610184, 104.02127481980203 32.19694240467294, 106.50873471621492 40.54075492937869 C108.9961946126278 48.88456745408445, 104.22250077021829 64.38985474558032, 106.70342983874392 65.17927494143505 C109.18435890726954 65.96869513728979, 119.893146134307 54.195396935721426, 121.3943091273687 45.27727610450709 C122.8954721204304 36.35915527329275, 122.07950909970104 19.42546270007954, 115.7104077971141 11.670549954149019 C109.34130649452716 3.9156372082184996, 90.71234700719636 1.6961806691159307, 83.17970131184704 -1.2522003710760283 C75.64705561649772 -4.200581411267987, 70.32276176741954 -1.6854392091924133, 70.51453362501822 -6.0197362870027336 C70.7063054826169 -10.354033364813054, 77.03218249971606 -21.618904396204773, 84.33033245743914 -27.257982837937952 C91.62848241516222 -32.897061279671135, 107.04246198276799 -39.05020118237026, 114.3034333713567 -39.85420693740181 C121.56440475994542 -40.658212692433366, 126.87535099872957 -27.87516852982002, 127.89616078897144 -32.08201736812727 C128.9169705792133 -36.28886620643451, 122.87033205236307 -60.55320563409554, 120.42829211280794 -65.0952999672453 C117.98625217325281 -69.63739430039506, 119.38573337566822 -61.775233922605565, 113.24392115164066 -59.334583367025814 C107.1021089276131 -56.893932811446064, 95.43427676738897 -58.820341537651174, 83.57741876864256 -50.45139663376677 C71.72056076989615 -42.082451729882365, 57.388738279741226 -15.847123035499003, 42.10277315916224 -9.120913943719366 C26.816808038583254 -2.3947048519397285, -0.41599256090793624 -14.173221245950039, -8.138371954831372 -10.094142083088945 C-15.860751348754809 -6.0150629202278525, -5.772772900644936 13.900467480747404, -4.231503204378377 15.353561033447194 C-2.6902335081118185 16.806654586146987, 0.5605287814961306 1.122268196736915, 1.109246222767979 -1.375580766890198" stroke="#000000" stroke-width="4" fill="none"></path></g></g><g><g stroke-opacity="0.4" fill-opacity="0.4" transform="translate(21.941027205566115 275.49896163488586) rotate(339.84019406844413 78.6422814255402 -49.342801903870736)" fill-rule="evenodd"><path d="M-1.7507905531674623 -0.4107919465750456 L46.372029157659284 -10.806965296258689 L77.34994032273528 -18.438856858296127 L99.88355232611946 -27.19366209818861 L106.72789759558268 -34.04300437626454 L116.18216508410792 -44.98504891124716 L125.16124503889166 -63.729389184233725 L133.00052197802412 -91.67540355808103 L146.3813955116326 -113.05402405340487 L152.16751944435333 -108.64832077971252 L161.97318212707023 -99.63874739933976 L174.39606194185907 -90.85708522799217 L175.29292144253736 -89.93027694318948 L170.7993693038123 -75.7395499070725 L166.8412454415007 -66.39950805479927 L147.54899837360347 -41.68309281275654 L135.18231747368174 -26.433627177226924 L119.51398394701798 -11.77696306193224 L100.46435847285977 0.8117993271235946 L76.02765379456137 6.4920224151284724 L45.951155188839095 13.946155103299283 L-1.2049996834335577 13.161894153365239 L-13.516500425237368 15.702739727394917 L-15.59412857658923 9.854621771109638 L-15.12585352222088 5.3703749090770145 L-13.142720925738917 4.5866568685062 L-0.6252330113202333 -0.622689438983798" stroke="none" stroke-width="0" fill="white" fill-rule="evenodd"></path><path d="M0.11761338897049423 -1.0841010052710771 C16.669920661959633 -5.551059248259401, 76.26914976991704 -11.53461734318888, 99.07725977510862 -27.741391942788574 C121.8853697803002 -43.948166542388265, 128.62394242524874 -84.3931209953209, 136.96627342011996 -98.32474860286925 C145.30860441499118 -112.2563762104176, 144.4588045222515 -111.50735682613433, 149.13124574433593 -111.33115758807864 C153.80368696642034 -111.15495835002295, 160.7019866861006 -101.10608723820243, 165.00092075262646 -97.26755317453512 C169.2998548191523 -93.42901911086781, 175.9896281394749 -95.45347982809504, 174.92485014349108 -88.29995320607482 C173.86007214750728 -81.1464265840546, 171.24825645289852 -69.19713839989574, 158.6122527767236 -54.34639344241375 C145.9762491005487 -39.495648484931756, 125.92136567648926 -10.74377291389467, 99.10882808644166 0.8045165388171198 C72.29629049639406 12.35280599152891, 16.781069320329827 14.48514312918103, -2.262972763561989 14.943343273856982 C-21.307014847453807 15.401543418532935, -15.403000507479998 6.091851661873742, -15.155424416909247 3.5537174068728348 C-14.907848326338495 1.0155831518719283, -3.111992532590136 0.3160836804093463, -0.7775162201374769 -0.28546225614845755 M-1.2797783111594618 0.9611420216225088 C15.654241535000342 -3.808196700343972, 77.78340170482163 -13.339467562993672, 101.24341095539457 -29.737768359192373 C124.7034202059675 -46.13606915539107, 131.45898222805704 -83.44679963516869, 139.48027719227812 -97.4286627555697 C147.5015721564992 -111.41052587597072, 145.26718042981045 -113.793923048165, 149.37118074072106 -113.62894708159845 C153.47518105163167 -113.46397111503191, 160.18388304365553 -100.48701170357931, 164.1042790577417 -96.43880695617044 C168.0246750718279 -92.39060220876156, 174.21475993191964 -96.2267267282549, 172.89355682523808 -89.33971859714521 C171.5723537185565 -82.45271046603551, 168.13713883602526 -70.08562248779879, 156.17706041765237 -55.116758169512245 C144.21698199927948 -40.147893851225696, 127.30595850823873 -10.983191535274551, 101.13308631500071 0.47346731257407093 C74.96021412176269 11.930126160422693, 18.924796692041113 13.249103004567237, -0.8601727417757461 13.623194917579486 C-20.645142175592603 13.997286830591735, -17.57585573981935 4.896931408995522, -17.576730287900446 2.7180187906475624 C-17.577604835981543 0.5391061722996024, -3.877519217094138 1.087495987712745, -0.8654200302623213 0.5497192074917256" stroke="transparent" stroke-width="4" fill="none"></path></g></g><g><g stroke-opacity="0.4" fill-opacity="0.4" transform="translate(129.6837163647076 117.38766690072146) rotate(339.84019406844413 53.385954226404635 1.6274342088338472)" fill-rule="evenodd"><path d="M0.7932460140436888 -1.221656097099185 L-9.820160584524274 -21.723604990169406 L-11.457693235948682 -25.94886435382068 L-4.979444103315473 -28.797779036685824 L1.4896631073206663 -30.447122110053897 L20.277951760217547 -30.06089503876865 L43.71917734853923 -20.37145866267383 L62.38043276779353 -20.92695446126163 L91.66517565958202 -17.770213855430484 L101.12815455906093 -12.649726225063205 L106.09596858732402 -6.947586907073855 L113.0100239943713 1.3668437469750656 L114.45100925676525 13.946031557396058 L115.20595745556056 32.207884239032865 L115.23878155462444 33.924740659072995 L103.94932286255062 22.1161931026727 L98.78869221918285 23.266799675300717 L72.90271787159145 32.59898774512112 L66.89853177778423 36.88291417248547 L66.56176321022213 27.662951515987515 L68.05883978120983 8.734738813713193 L66.26698164455593 4.265396045520902 L61.49031935445964 -1.6948315035551786 L51.933480901643634 1.5132835377007723 L22.835090858861804 9.392939792945981 L13.119343562051654 8.450271295383573 L9.102538449689746 5.568548308685422 L13.049735946580768 -11.262528849765658 L10.603544695302844 -12.434058202430606 L-1.4549989271908998 1.746785568073392" stroke="none" stroke-width="0" fill="black" fill-rule="evenodd"></path><path d="M-0.3351282935589551 -0.9778583843261003 C-2.2476483405878147 -5.3728271602342526, -13.821514505272111 -21.586970448369783, -10.453241680189967 -26.46781632490456 C-7.084968855107823 -31.34866220143934, 10.680020596459508 -31.07233778225879, 19.874508656933905 -30.26293364353478 C29.068996717408304 -29.45352950481077, 36.14502196100851 -22.994334220762056, 44.71368668265641 -21.611391492560507 C53.28235140430431 -20.22844876435896, 60.863793136551976 -24.191831020389994, 71.28649698682129 -21.96527727432549 C81.7092008370906 -19.738723528260987, 99.66374704626699 -17.563074437653025, 107.24990978427232 -8.252069016173483 C114.83607252227765 1.05893640530606, 117.87958827999731 29.082751770938437, 116.80347341485322 33.90075525455177 C115.72735854970912 38.7187587381651, 109.10168549008668 20.36165916137397, 100.79322059340775 20.65595188550651 C92.48475569672883 20.95024460963905, 73.3700818080455 38.9419379354765, 66.95268403477967 35.666511599347 C60.535286261513825 32.39108526321749, 71.31401307371756 5.364404336735607, 62.28883395381272 1.0033938687294721 C53.263654833907886 -3.3576165992766622, 20.7661656477799 11.360174087807536, 12.801609315350651 9.500448791310191 C4.837052982921401 7.640723494812846, 16.635007140909632 -8.533842817818126, 14.501495959237218 -10.154957910254598 C12.367984777564804 -11.77607300269107, 2.5701509971171617 -2.0856191991517945, 0.0005422253161668777 -0.22624176330864432 M1.689790622983128 1.1231620185635984 C-0.38284619848554335 -3.608625741495441, -13.866462669180086 -22.709790450229, -10.877373791541904 -28.228963394258173 C-7.888284913903723 -33.748136338287345, 10.295710850153117 -33.23810173798974, 19.624323888812214 -31.991875645611437 C28.95293692747131 -30.745649553233136, 36.6531148725686 -22.411400303735086, 45.09430444041267 -20.75160683998838 C53.53549400825674 -19.091813376241674, 59.72690194526687 -23.996525543623914, 70.27146129587665 -22.033114863131196 C80.81602064648642 -20.06970418263848, 100.44441602169846 -18.160961385065068, 108.36166054407134 -8.971142757032066 C116.27890506644422 0.21867587100093644, 119.13874975323057 27.706226213282594, 117.77492843011395 33.10579690506682 C116.41110710699732 38.50536759685104, 108.40649188498034 23.181147074010223, 100.17873260537162 23.42628139367327 C91.9509733257629 23.67141571333632, 74.6111126724817 38.312795134292294, 68.40837275246159 34.57660282304511 C62.20563283244149 30.840410511797916, 72.13185711085175 5.0639208417199555, 62.962293085251005 1.0091275261901318 C53.792729059650256 -3.045665789339692, 21.627377747291078 12.079429591801018, 13.390988598857074 10.247842929866165 C5.1545994504230706 8.416256267931312, 15.737440410250176 -8.077498480373372, 13.543958194646985 -9.980392445418984 C11.350475979043793 -11.883286410464596, 2.2276637927629057 -3.0554605834620694, 0.23009530523791932 -1.1695208604075016" stroke="transparent" stroke-width="4" fill="none"></path></g></g></svg>